<svg id="Layer_1" enable-background="new 0 0 512 512" height="512" viewBox="0 0 512 512" width="512" xmlns="http://www.w3.org/2000/svg"><g clip-rule="evenodd" fill-rule="evenodd"><circle cx="256" cy="256" fill="#ffd53d" r="240"/><path d="m489.77 310.549c-14.463 62.216-53.123 115.144-105.525 148.336l-145.732-145.731c-4.538-4.377-7.443-10.448-7.688-17.221l-6.368-176.333c-.256-7.092 2.116-13.289 7.043-18.397s11.035-7.702 18.131-7.702h12.736c7.096 0 13.204 2.595 18.13 7.702.308.319.606.643.894.97zm-111.732 152.131-98.15-98.15c-.695-.764-1.425-1.495-2.189-2.189-5.731-5.209-13.344-8.383-21.698-8.383-17.823 0-32.272 14.448-32.272 32.271 0 9.468 4.078 17.984 10.573 23.888l78.985 78.985c23.071-5.656 44.836-14.637 64.751-26.422z" fill="#dbad09"/><path d="m256 353.958c17.823 0 32.271 14.448 32.271 32.271s-14.448 32.271-32.271 32.271-32.272-14.448-32.272-32.271c.001-17.823 14.45-32.271 32.272-32.271zm.001-33.744c-13.556.001-24.686-10.734-25.175-24.282l-6.368-176.333c-.256-7.092 2.116-13.289 7.043-18.397s11.035-7.702 18.131-7.702h12.736c7.096 0 13.204 2.595 18.13 7.702 4.927 5.108 7.299 11.305 7.043 18.397l-6.368 176.333c-.487 13.547-11.617 24.282-25.172 24.282z" fill="#fff"/></g></svg>