<svg id="Layer_1" enable-background="new 0 0 512 512" height="512" viewBox="0 0 512 512" width="512" xmlns="http://www.w3.org/2000/svg"><g clip-rule="evenodd" fill-rule="evenodd"><circle cx="256" cy="256" fill="#ff5a54" r="240"/><path d="m495.965 258.762c-1.472 130.353-106.851 235.731-237.203 237.203l-109.943-109.943c-37.449-30.906-61.319-77.677-61.319-130.022 0-93.058 75.442-168.5 168.5-168.5 52.345 0 99.116 23.87 130.022 61.319z" fill="#db3a3c"/><path d="m354.897 193.551-161.346 161.346c18.689 11.833 40.241 18.056 62.449 18.056 64.594 0 116.954-52.36 116.954-116.954 0-22.207-6.224-43.759-18.057-62.448zm-197.794 124.898c-11.832-18.689-18.057-40.24-18.057-62.449 0-64.594 52.36-116.954 116.954-116.954 22.209 0 43.759 6.225 62.449 18.057zm98.897-230.949c93.058 0 168.5 75.442 168.5 168.5s-75.442 168.5-168.5 168.5-168.5-75.442-168.5-168.5 75.442-168.5 168.5-168.5z" fill="#fff"/></g></svg>