<svg id="Layer_1" enable-background="new 0 0 512 512" height="512" viewBox="0 0 512 512" width="512" xmlns="http://www.w3.org/2000/svg"><g clip-rule="evenodd" fill-rule="evenodd"><circle cx="256" cy="256" fill="#ff5a54" r="240"/><path d="m495.956 252.561c.016 1.146.044 2.289.044 3.439 0 132.548-107.452 240-240 240-1.259 0-2.511-.028-3.766-.048l-88.663-88.664c-3.064-2.628-5.088-6.446-5.352-10.777l-12.397-203.318h1.554l-17.467-17.467c-.906-.906-1.467-2.156-1.467-3.533v-25.76c0-8.497 6.93-15.426 15.426-15.426h64.999v-12.613c0-9.582 7.815-17.396 17.396-17.396h59.474c5.09 0 9.682 2.205 12.868 5.71l24.299 24.299h45.228c4.779 0 9.063 2.193 11.896 5.624z" fill="#db3a3c"/><path d="m205.923 234.437c4.418 0 8 3.582 8 8v101.585c0 4.418-3.582 8-8 8s-8-3.582-8-8v-101.585c0-4.418 3.582-8 8-8zm42.077 8c0-4.418 3.582-8 8-8s8 3.582 8 8v101.585c0 4.418-3.582 8-8 8s-8-3.582-8-8zm50.077 0c0-4.418 3.582-8 8-8s8 3.582 8 8v101.585c0 4.418-3.582 8-8 8s-8-3.582-8-8zm-152.255-49.243 12.397 203.318c.497 8.152 7.23 14.487 15.397 14.487h164.767c8.167 0 14.901-6.335 15.397-14.487l12.397-203.318zm-1.954-62.185h64.999v-12.613c0-9.582 7.815-17.396 17.396-17.396h59.474c9.581 0 17.396 7.814 17.396 17.396v12.613h64.998c8.497 0 15.426 6.93 15.426 15.426v25.76c0 2.754-2.246 5-5 5h-245.116c-2.754 0-5-2.246-5-5v-25.76c0-8.497 6.931-15.426 15.427-15.426z" fill="#fff"/></g></svg>