<svg id="Layer_1" enable-background="new 0 0 512 512" height="512" viewBox="0 0 512 512" width="512" xmlns="http://www.w3.org/2000/svg"><g clip-rule="evenodd" fill-rule="evenodd"><circle cx="256" cy="256" fill="#ff5a54" r="240"/><path d="m256.586 495.993c114.339-.274 209.876-80.502 233.691-187.735l-213.329-213.33c-5.192-5.709-12.67-9.307-20.948-9.307-15.582 0-28.33 12.749-28.33 28.33v11.388c-37.884 5.729-67.164 38.641-67.164 78.059v74.486c0 9.967-.48 19.989-1.873 29.738l16 16h-19.261c-4.136 15.165-11.318 29.127-23.408 40.476-1.527 1.433-1.999 3.54-1.227 5.486.337.851.868 1.562 1.535 2.092z" fill="#db3a3c"/><path d="m158.632 307.623c1.393-9.749 1.873-19.771 1.873-29.738v-74.486c0-39.418 29.28-72.33 67.164-78.059v-11.388c0-15.581 12.749-28.33 28.33-28.33 15.582 0 28.33 12.749 28.33 28.33v11.388c37.885 5.729 67.165 38.641 67.165 78.059v74.486c0 9.967.48 19.989 1.873 29.738zm97.368 102.998c-23.24 0-42.702-16.173-47.747-37.878h-72.869c-2.092 0-3.877-1.213-4.648-3.158-.771-1.946-.299-4.053 1.227-5.486 12.09-11.35 19.272-25.311 23.408-40.476h201.258c4.136 15.165 11.318 29.127 23.408 40.476 1.526 1.432 1.998 3.54 1.227 5.486-.771 1.945-2.556 3.158-4.648 3.158h-72.869c-5.044 21.705-24.507 37.878-47.747 37.878z" fill="#fff"/></g></svg>