<svg id="Layer_1" enable-background="new 0 0 512 512" height="512" viewBox="0 0 512 512" width="512" xmlns="http://www.w3.org/2000/svg"><g clip-rule="evenodd" fill-rule="evenodd"><ellipse cx="256" cy="256" fill="#ffd53d" rx="240" ry="240" transform="matrix(.707 -.707 .707 .707 -106.039 256)"/><path d="m491.403 302.913c-21.817 110.086-118.911 193.087-235.403 193.087-6.981 0-13.887-.316-20.717-.9l-123.049-123.048c-4.676-3.837-8.706-8.552-11.858-14.011-9.169-15.881-9.169-35.046 0-50.926l111.52-193.158c9.169-15.881 25.766-25.463 44.103-25.463 14.899 0 28.649 6.326 38.2 17.216z" fill="#dbad09"/><path d="m256.001 281.924c-7.174 0-13.065-5.681-13.324-12.851l-3.37-93.325c-.136-3.754 1.12-7.033 3.728-9.737 2.607-2.703 5.84-4.076 9.596-4.076h6.741c3.756 0 6.989 1.373 9.596 4.076 2.608 2.703 3.863 5.984 3.727 9.737l-3.37 93.325c-.26 7.17-6.151 12.851-13.324 12.851zm-.001 30.489c9.433 0 17.08 7.647 17.08 17.08 0 9.432-7.647 17.079-17.08 17.079s-17.079-7.646-17.079-17.079c-.001-9.433 7.646-17.08 17.079-17.08zm44.103-198.456c-9.168-15.881-25.766-25.463-44.103-25.463s-34.935 9.582-44.103 25.463l-111.52 193.158c-9.169 15.88-9.169 35.046 0 50.926 9.169 15.881 25.766 25.463 44.103 25.463h223.04c18.337 0 34.935-9.583 44.103-25.463 9.169-15.881 9.169-35.046 0-50.926z" fill="#fff"/></g></svg>